#!OML:ASF H:\Martial Arts Walks\Project 1\Capture day 1\Session 1\male.ASF
:FULLY-SPECIFIED
:DEGREES
1461
root -3.56292 13.5721 42.2598 7.37001 13.064 8.05567
lowerback 12.5782 -4.92355 -16.2849
upperback -2.66684 -9.12655 0.84236
thorax -7.37305 -3.66761 11.5637
lowerneck 10.3827 -16.9575 -18.3205
upperneck 2.00518 -25.2827 20.8209
head 3.97772 -13.078 8.08745
rclavicle 5.65946e-014 2.6165e-014
rhumerus -31.8173 19.5662 -76.2552
rradius 38.1461
rwrist 10.8398
rhand -5.08249 -43.2513
rfingers 7.12502
rthumb 20.7142 -72.1658
lclavicle 5.65946e-014 2.6165e-014
lhumerus -25.9062 -7.33745 87.0193
lradius 30.2451
lwrist -17.1115
lhand -21.0415 23.4427
lfingers 7.12502
lthumb 5.33424 53.3556
rfemur -65.8242 -19.3552 8.18067
rtibia 73.3998
rfoot -9.90601 10.6819
rtoes -1.31157
lfemur 19.7141 6.57461 -15.9895
ltibia 24.2555
lfoot -27.679 33.1557
ltoes -24.1152
1462
root -3.56611 13.5716 42.2602 7.38637 13.0514 8.12417
lowerback 12.544 -4.8619 -16.2965
upperback -2.71006 -9.0488 0.793505
thorax -7.43329 -3.6209 11.5079
lowerneck 10.127 -16.7529 -18.1401
upperneck 2.37724 -24.9656 20.433
head 3.98892 -12.8961 7.96439
rclavicle 5.807e-014 -1.68718e-014
rhumerus -32.0075 19.4099 -76.2638
rradius 38.0726
rwrist 10.8868
rhand -5.04679 -43.2308
rfingers 7.12502
rthumb 20.7485 -72.1416
lclavicle 5.807e-014 -1.68718e-014
lhumerus -25.993 -7.42571 87.0432
lradius 30.2332
lwrist -16.9651
lhand -21.4027 23.2182
lfingers 7.12502
lthumb 4.98553 53.1395
rfemur -65.8293 -19.3421 8.10813
rtibia 73.3959
rfoot -9.9041 10.6715
rtoes -1.53455
lfemur 19.6968 6.58158 -16.0569
ltibia 24.2807
lfoot -27.7239 33.1681
ltoes -24.1176
1463
root -3.56847 13.5721 42.2563 7.43218 13.0748 8.11447
lowerback 12.5182 -4.81546 -16.1895
upperback -2.77093 -8.97429 0.766818
thorax -7.52899 -3.57644 11.415
lowerneck 10.1455 -16.4996 -18.086
upperneck 2.44777 -24.6125 20.32
head 3.91543 -12.7213 7.97999
rclavicle -6.21295e-014 -2.70844e-014
rhumerus -32.1883 19.2561 -76.2592
rradius 37.9992
rwrist 10.9024
rhand -4.97535 -43.2953
rfingers 7.12502
rthumb 20.8171 -72.1986
lclavicle -6.21295e-014 -2.70844e-014
lhumerus -26.0377 -7.53731 87.0758
lradius 30.1794
lwrist -17.0744
lhand -21.326 23.4329
lfingers 7.12502
lthumb 5.05955 53.3525
rfemur -65.8705 -19.3561 8.14084
rtibia 73.3794
rfoot -9.93596 10.6494
rtoes -1.66358
lfemur 19.6093 6.54094 -16.061
ltibia 24.3062
lfoot -27.6954 33.2069
ltoes -24.0743
1464
root -3.57279 13.5726 42.2558 7.44368 13.0873 8.13662
lowerback 12.4588 -4.75752 -16.1422
upperback -2.77157 -8.88305 0.712332
thorax -7.53859 -3.53437 11.3114
lowerneck 10.0814 -16.1813 -18.0269
upperneck 2.6069 -24.1707 20.2071
head 3.86399 -12.497 7.99575
rclavicle -8.24335e-014 -3.65267e-015
rhumerus -32.1402 19.0541 -76.2731
rradius 37.7183
rwrist 10.9728
rhand -4.85782 -43.2985
rfingers 7.12502
rthumb 20.93 -72.1893
lclavicle -8.24335e-014 -3.65267e-015
lhumerus -26.0153 -7.64722 87.0504
lradius 30.1444
lwrist -17.2259
lhand -21.2625 23.7496
lfingers 7.12502
lthumb 5.12085 53.6677
rfemur -65.8701 -19.3396 8.11951
rtibia 73.3582
rfoot -9.88612 10.6425
rtoes -1.52826
lfemur 19.5625 6.51649 -16.077
ltibia 24.3537
lfoot -27.7344 33.2029
ltoes -24.0336
1465
root -3.57688 13.5756 42.2531 7.45542 13.0816 8.11107
lowerback 12.7087 -4.899 -16.36
upperback -2.49377 -9.10912 0.86274
thorax -7.2434 -3.67875 11.6291
lowerneck 7.90618 -16.0053 -17.2911
upperneck 3.49717 -23.6198 19.3621
head 4.17164 -12.0785 7.49087
rclavicle 1.24675e-014 1.49089e-016
rhumerus -31.0994 19.5479 -76.2667
rradius 37.4973
rwrist 10.9468
rhand -4.89897 -43.2954
rfingers 7.12502
rthumb 20.8905 -72.1906
lclavicle 1.24675e-014 1.49089e-016
lhumerus -25.2593 -6.74872 86.6211
lradius 30.0703
lwrist -17.2877
lhand -21.2778 23.8335
lfingers 7.12502
lthumb 5.1061 53.752
rfemur -65.9003 -19.2929 8.16483
rtibia 73.333
rfoot -9.8294 10.6206
rtoes -1.38648
lfemur 19.5085 6.52957 -16.0337
ltibia 24.3936
lfoot -27.7641 33.1754
ltoes -24.0503
1466
root -3.58392 13.5798 42.2548 7.49076 13.0108 7.87308
lowerback 12.5752 -4.8329 -16.1281
upperback -2.50679 -8.95769 0.911276
thorax -7.25064 -3.61398 11.5246
lowerneck 7.6802 -15.7764 -17.1022
upperneck 3.62401 -23.2563 19.1451
head 4.12784 -11.8832 7.43126
rclavicle 3.88717e-014 3.06874e-014
rhumerus -31.1589 19.3774 -76.2367
rradius 37.3698
rwrist 10.9204
rhand -4.92874 -43.1189
rfingers 7.12502
rthumb 20.8619 -72.0172
lclavicle 3.88717e-014 3.06874e-014
lhumerus -25.2157 -6.73232 86.6161
lradius 30.0119
lwrist -17.377
lhand -21.4049 23.6336
lfingers 7.12502
lthumb 4.98341 53.555
rfemur -65.9885 -19.0848 8.45651
rtibia 73.291
rfoot -9.8062 10.4864
rtoes -1.44086
lfemur 19.4152 6.627 -15.7641
ltibia 24.3841
lfoot -27.7368 33.1489
ltoes -24.1532
1467
root -3.58634 13.5737 42.2544 7.46149 13.074 8.08056
lowerback 12.662 -4.79428 -16.2518
upperback -2.45834 -8.94207 0.839262
thorax -7.24635 -3.60444 11.519
lowerneck 7.05753 -15.6083 -16.8019
upperneck 4.03078 -22.9383 18.723
head 4.20289 -11.683 7.24302
rclavicle -3.34114e-014 -1.19022e-014
rhumerus -31.1065 19.2894 -76.2227
rradius 37.2456
rwrist 10.9944
rhand -4.81886 -43.3067
rfingers 7.12502
rthumb 20.9674 -72.1934
lclavicle -3.34114e-014 -1.19022e-014
lhumerus -25.0997 -6.62996 86.5711
lradius 29.9601
lwrist -17.5101
lhand -21.4291 23.5262
lfingers 7.12502
lthumb 4.96001 53.4482
rfemur -65.9049 -19.2072 8.21239
rtibia 73.3396
rfoot -9.8395 10.5492
rtoes -1.47198
lfemur 19.5074 6.53401 -15.9618
ltibia 24.3476
lfoot -27.7683 33.1375
ltoes -24.1218
1468
root -3.58563 13.5767 42.249 7.43395 13.21 8.18342
lowerback 12.7434 -4.75052 -16.15
upperback -2.46244 -8.88984 0.75213
thorax -7.34165 -3.57416 11.3737
lowerneck 7.0315 -15.3626 -16.6706
upperneck 4.02281 -22.5764 18.6319
head 4.11276 -11.5028 7.24883
rclavicle -1.51962e-013 -2.21148e-015
rhumerus -31.3469 19.0988 -76.2201
rradius 37.2478
rwrist 10.9907
rhand -4.7618 -43.3477
rfingers 7.12502
rthumb 21.0223 -72.2283
lclavicle -1.51962e-013 -2.21148e-015
lhumerus -25.0833 -6.68708 86.586
lradius 29.9167
lwrist -17.5562
lhand -21.3467 23.492
lfingers 7.12502
lthumb 5.03964 53.412
rfemur -65.8262 -19.3965 8.08934
rtibia 73.3489
rfoot -9.86085 10.5843
rtoes -1.51864
lfemur 19.5581 6.42851 -16.0462
ltibia 24.2945
lfoot -27.6824 33.1328
ltoes -24.0603
1469
root -3.59173 13.5745 42.2499 7.48426 13.1559 8.26677
lowerback 12.6728 -4.67401 -16.1998
upperback -2.48126 -8.78903 0.702894
thorax -7.35497 -3.52111 11.3283
lowerneck 6.93211 -15.117 -16.4971
upperneck 4.02025 -22.2028 18.5249
head 4.0281 -11.3122 7.23768
rclavicle 3.36629e-014 -2.28602e-015
rhumerus -31.4094 18.9315 -76.2173
rradius 37.0998
rwrist 11.1123
rhand -4.86665 -43.2928
rfingers 7.12502
rthumb 20.9215 -72.1846
lclavicle 3.36629e-014 -2.28602e-015
lhumerus -25.1147 -6.65176 86.5783
lradius 29.9201
lwrist -17.6774
lhand -21.2684 23.4324
lfingers 7.12502
lthumb 5.11515 53.3507
rfemur -65.9133 -19.3201 8.02681
rtibia 73.3898
rfoot -9.84261 10.5578
rtoes -1.56778
lfemur 19.5659 6.47053 -16.1155
ltibia 24.2046
lfoot -27.7097 33.0662
ltoes -24.0366
1470
root -3.59459 13.576 42.2489 7.51045 13.2372 8.29167
lowerback 12.6069 -4.63782 -16.1039
upperback -2.48368 -8.7175 0.654473
thorax -7.36179 -3.49096 11.206
lowerneck 6.75104 -14.9212 -16.3284
upperneck 4.18661 -21.903 18.3309
head 4.01134 -11.1509 7.17768
rclavicle 7.87467e-014 2.88983e-014
rhumerus -31.3739 18.7653 -76.2052
rradius 36.866
rwrist 11.1874
rhand -4.95224 -43.1791
rfingers 7.12502
rthumb 20.8393 -72.08
lclavicle 7.87467e-014 2.88983e-014
lhumerus -25.1039 -6.7859 86.6016
lradius 29.8839
lwrist -17.6285
lhand -21.3807 23.4606
lfingers 7.12502
lthumb 5.00675 53.3814
rfemur -65.9068 -19.3871 8.00753
rtibia 73.4046
rfoot -9.8884 10.4943
rtoes -1.64817
lfemur 19.5747 6.41262 -16.1159
ltibia 24.1138
lfoot -27.6182 33.0751
ltoes -24.1143
1471
root -3.5986 13.5743 42.2486 7.52807 13.2509 8.34444
lowerback 12.5676 -4.58378 -16.0916
upperback -2.47713 -8.6388 0.615479
thorax -7.36344 -3.4541 11.1423
lowerneck 6.62453 -14.7082 -16.1805
upperneck 4.19185 -21.577 18.2479
head 3.94959 -10.9822 7.16552
rclavicle -1.02899e-013 -7.59357e-014
rhumerus -31.5868 18.5969 -76.2075
rradius 36.9266
rwrist 11.2571
rhand -4.97282 -43.146
rfingers 7.12502
rthumb 20.8195 -72.049
lclavicle -1.02899e-013 -7.59357e-014
lhumerus -25.0999 -6.86212 86.6148
lradius 29.9029
lwrist -17.5829
lhand -21.2393 23.5393
lfingers 7.12502
lthumb 5.14331 53.4569
rfemur -65.9387 -19.3988 7.96145
rtibia 73.4242
rfoot -9.8466 10.5077
rtoes -1.59531
lfemur 19.5759 6.41317 -16.1437
ltibia 24.0921
lfoot -27.7423 33.0069
ltoes -23.9079
1472
root -3.60218 13.5737 42.2483 7.52411 13.2864 8.39781
lowerback 12.5304 -4.51013 -16.0355
upperback -2.45006 -8.52665 0.558207
thorax -7.36131 -3.40487 11.0296
lowerneck 6.54979 -14.5311 -15.9921
upperneck 4.0981 -21.292 18.1752
head 3.85481 -10.8374 7.15219
rclavicle -2.30932e-014 -3.19049e-014
rhumerus -31.6086 18.3833 -76.1617
rradius 36.7832
rwrist 11.3137
rhand -4.8959 -42.8966
rfingers 7.12502
rthumb 20.8934 -71.7914
lclavicle -2.30932e-014 -3.19049e-014
lhumerus -25.0792 -7.07484 86.6656
lradius 29.9037
lwrist -17.4862
lhand -21.2858 23.4876
lfingers 7.12502
lthumb 5.09842 53.4062
rfemur -65.9175 -19.4162 7.90055
rtibia 73.4318
rfoot -9.87505 10.4837
rtoes -1.67242
lfemur 19.5978 6.37077 -16.1784
ltibia 24.0676
lfoot -27.6073 33.0442
ltoes -24.0884
